<?xml version="1.0" encoding="UTF-8" standalone="no"?>
<svg
   xmlns:dc="http://purl.org/dc/elements/1.1/"
   xmlns:cc="http://creativecommons.org/ns#"
   xmlns:rdf="http://www.w3.org/1999/02/22-rdf-syntax-ns#"
   xmlns:svg="http://www.w3.org/2000/svg"
   xmlns="http://www.w3.org/2000/svg"
   xmlns:sodipodi="http://sodipodi.sourceforge.net/DTD/sodipodi-0.dtd"
   xmlns:inkscape="http://www.inkscape.org/namespaces/inkscape"
   version="1.1"
   id="Layer_2"
   x="0px"
   y="0px"
   viewBox="0 0 551 480"
   style="enable-background:new 0 0 551 480;"
   xml:space="preserve"
   sodipodi:docname="Penrose-Triangle.svg"
   inkscape:version="1.0.2 (e86c870879, 2021-01-15)"><defs
   id="defs3921" /><sodipodi:namedview
   pagecolor="#ffffff"
   bordercolor="#666666"
   borderopacity="1"
   objecttolerance="10"
   gridtolerance="10"
   guidetolerance="10"
   inkscape:pageopacity="0"
   inkscape:pageshadow="2"
   inkscape:window-width="1696"
   inkscape:window-height="1007"
   id="namedview3919"
   showgrid="false"
   inkscape:zoom="1.6875"
   inkscape:cx="191.44094"
   inkscape:cy="219.46572"
   inkscape:window-x="26"
   inkscape:window-y="23"
   inkscape:window-maximized="0"
   inkscape:current-layer="Layer_2" />
<style
   type="text/css"
   id="style3906">
	.st0{fill:#999999;stroke:#000000;stroke-linejoin:round;stroke-miterlimit:10;}
	.st1{fill:#808080;stroke:#000000;stroke-linejoin:round;stroke-miterlimit:10;}
	.st2{fill:#666666;stroke:#000000;stroke-linejoin:round;stroke-miterlimit:10;}
</style>
<g
   id="g3914">
	<polygon
   class="st0"
   points="531.2,399.4 315.5,9.9 234.6,9.9 412.6,331.3 215.2,331.3 177.9,399.2  "
   id="polygon3908" />
	<polygon
   class="st1"
   points="177.9,399.2 275.6,219.5 236.2,148.8 60.5,470.1 139,470.1 493.4,470.1 531.2,399.2  "
   id="polygon3910" />
	<polygon
   class="st2"
   points="234.6,9.9 19.8,399.4 60.5,470.1 236.2,148.8 337.9,331.3 412.6,331.3  "
   id="polygon3912" />
</g>
<metadata
   id="metadata3916"><rdf:RDF><cc:Work><dc:format>image/svg+xml</dc:format><dc:type
         rdf:resource="http://purl.org/dc/dcmitype/StillImage" /><cc:license
         rdf:resource="http://creativecommons.org/licenses/publicdomain/" /><dc:publisher><cc:Agent
           rdf:about="http://openclipart.org/"><dc:title>Openclipart</dc:title></cc:Agent></dc:publisher></cc:Work><cc:License
       rdf:about="http://creativecommons.org/licenses/publicdomain/"><cc:permits
         rdf:resource="http://creativecommons.org/ns#Reproduction" /><cc:permits
         rdf:resource="http://creativecommons.org/ns#Distribution" /><cc:permits
         rdf:resource="http://creativecommons.org/ns#DerivativeWorks" /></cc:License></rdf:RDF></metadata><text
   xml:space="preserve"
   style="font-size:16px;line-height:1.25;font-family:sans-serif"
   x="294.91898"
   y="374.40277"
   id="text3925"><tspan
     sodipodi:role="line"
     id="tspan3923"
     x="294.91898"
     y="374.40277"
     style="font-style:normal;font-variant:normal;font-weight:bold;font-stretch:normal;font-size:37.3333px;font-family:sans-serif;-inkscape-font-specification:'sans-serif Bold'">Git</tspan></text><text
   xml:space="preserve"
   style="font-size:37.3333px;line-height:1.25;font-family:sans-serif"
   x="-276.91116"
   y="259.94278"
   id="text3929"
   transform="rotate(-59.983507)"><tspan
     sodipodi:role="line"
     id="tspan3927"
     x="-276.91116"
     y="259.94278"
     style="font-style:normal;font-variant:normal;font-weight:bold;font-stretch:normal;font-size:37.3333px;font-family:sans-serif;-inkscape-font-specification:'sans-serif Bold'">Sockets TCP/IP</tspan></text><text
   xml:space="preserve"
   style="font-size:16px;line-height:1.25;font-family:sans-serif"
   x="242.75119"
   y="-153.38609"
   id="text3933"
   transform="rotate(60.814447)"><tspan
     sodipodi:role="line"
     id="tspan3931"
     x="242.75119"
     y="-153.38609"
     style="font-size:37.3333px">GCP/AWS</tspan></text><text
   xml:space="preserve"
   style="font-size:16px;line-height:1.25;font-family:sans-serif"
   x="-192.17366"
   y="311.03174"
   id="text3937"
   transform="rotate(-60.690128)"><tspan
     sodipodi:role="line"
     id="tspan3935"
     x="-192.17366"
     y="311.03174"
     style="font-style:italic;font-variant:normal;font-weight:bold;font-stretch:normal;font-size:24px;font-family:sans-serif;-inkscape-font-specification:'sans-serif Bold Italic';text-align:center;text-anchor:middle">Docker/Kubernetes</tspan><tspan
     sodipodi:role="line"
     x="-192.17366"
     y="341.03174"
     id="tspan3939"
     style="font-style:italic;font-variant:normal;font-weight:bold;font-stretch:normal;font-size:24px;font-family:sans-serif;-inkscape-font-specification:'sans-serif Bold Italic';text-align:center;text-anchor:middle">Virtualenvs</tspan></text><text
   xml:space="preserve"
   style="font-size:32px;line-height:1.25;font-family:sans-serif"
   x="189.76912"
   y="-215.97517"
   id="text3943"
   transform="rotate(60.509834)"
   inkscape:transform-center-x="-50.263248"
   inkscape:transform-center-y="-54.729807"><tspan
     sodipodi:role="line"
     id="tspan3941"
     x="189.76912"
     y="-215.97517"
     style="font-style:italic;font-variant:normal;font-weight:normal;font-stretch:normal;font-size:32px;font-family:sans-serif;-inkscape-font-specification:'sans-serif Italic'">Linux Lover/Windows</tspan></text><text
   xml:space="preserve"
   style="font-size:16px;line-height:1.25;font-family:sans-serif"
   x="169.42825"
   y="445.85416"
   id="text3947"><tspan
     sodipodi:role="line"
     id="tspan3945"
     x="169.42825"
     y="445.85416"
     style="font-style:italic;font-variant:normal;font-weight:bold;font-stretch:normal;font-size:42.6667px;font-family:sans-serif;-inkscape-font-specification:'sans-serif Bold Italic'">DevOps  VM</tspan></text><g
   style="fill:none"
   id="g4352"
   transform="matrix(1.182898,-1.5302289,1.6126946,1.2466457,35.341995,393.15759)"><path
     fill-rule="evenodd"
     clip-rule="evenodd"
     d="m 1.25,10 c 0,4.8325 3.91751,8.75 8.75,8.75 4.8325,0 8.75,-3.9175 8.75,-8.75 C 18.75,5.16751 14.8325,1.25 10,1.25 5.16751,1.25 1.25,5.16751 1.25,10 Z m 16,0 c 0,4.0041 -3.2459,7.25 -7.25,7.25 -4.00406,0 -7.25,-3.2459 -7.25,-7.25 0,-4.00406 3.24594,-7.25 7.25,-7.25 4.0041,0 7.25,3.24594 7.25,7.25 z"
     fill="#000000"
     id="path4329" /><path
     fill-rule="evenodd"
     clip-rule="evenodd"
     d="m 6.25,10 c 0,4.5222 1.49111,8.25 3.75,8.25 2.2589,0 3.75,-3.7278 3.75,-8.25 C 13.75,5.47778 12.2589,1.75 10,1.75 7.74111,1.75 6.25,5.47778 6.25,10 Z m 6,0 c 0,3.7621 -1.1952,6.75 -2.25,6.75 -1.05482,0 -2.25,-2.9879 -2.25,-6.75 0,-3.76205 1.19518,-6.75 2.25,-6.75 1.0548,0 2.25,2.98795 2.25,6.75 z"
     fill="#000000"
     id="path4331" /><path
     d="M 3.60174,5.46733 4.60789,4.35483 C 4.70859,4.4459 4.817,4.53499 4.9328,4.62175 c 1.2713,0.95249 3.2995,1.53933 5.5154,1.53933 1.8909,0 3.6523,-0.42613 4.931,-1.15745 0.3078,-0.17604 0.5821,-0.367 0.8187,-0.56912 l 0.9743,1.14045 C 16.8622,5.83981 16.511,6.08431 16.1239,6.3057 14.6076,7.17293 12.5898,7.66108 10.4482,7.66108 7.92613,7.66108 5.58282,6.98307 4.03339,5.82219 3.88117,5.70814 3.73712,5.58977 3.60174,5.46733 Z"
     fill="#000000"
     id="path4333" /><path
     d="m 3.60174,14.5486 1.00615,1.1125 C 4.70859,15.57 4.817,15.4809 4.9328,15.3941 c 1.2713,-0.9524 3.2995,-1.5393 5.5154,-1.5393 1.8909,0 3.6523,0.4261 4.931,1.1575 0.3078,0.176 0.5821,0.367 0.8187,0.5691 l 0.9743,-1.1405 c -0.31,-0.2648 -0.6612,-0.5093 -1.0483,-0.7307 -1.5163,-0.8672 -3.5341,-1.3554 -5.6757,-1.3554 -2.52207,0 -4.86538,0.678 -6.41481,1.8389 -0.15222,0.1141 -0.29627,0.2324 -0.43165,0.3549 z"
     fill="#000000"
     id="path4335" /><path
     d="m 1.75,10.75 v -1.5 h 16.5 v 1.5 z"
     fill="#000000"
     id="path4337" /></g><g
   style="fill:none"
   id="g4410"
   transform="matrix(1.4334862,2.0744738,-2.1059459,1.4552338,269.83724,80.503744)"
   inkscape:transform-center-x="8.8500292"
   inkscape:transform-center-y="2.2113332"><path
     fill="#000000"
     fill-rule="evenodd"
     d="M 11.87,3.465 11.868,3.462 a 5.935,5.935 0 0 0 -5.586,-1.217 5.89,5.89 0 0 0 -3.98,4.092 4.206,4.206 0 0 0 -0.149,6.792 4.255,4.255 0 0 0 2.558,0.87 h 6.52 A 4.234,4.234 0 0 0 15.309,11.038 4.2,4.2 0 0 0 13.637,6.3 5.835,5.835 0 0 0 11.87,3.465 Z m -7.828,7.78 c 0.21,0.095 0.438,0.16 0.67,0.16 l 6.518,0.002 c 0.9,0 1.63,-0.725 1.63,-1.619 0,-0.894 -0.73,-1.619 -1.63,-1.619 V 7.846 A 3.226,3.226 0 0 0 10.043,5.286 H 10.041 C 8.702,4.208 6.736,4.374 5.576,5.64 L 5.562,5.655 c 0.996,0.2 1.897,0.751 2.525,1.568 L 6.198,9.101 A 1.63,1.63 0 0 0 3.101,9.54 1.617,1.617 0 0 0 4.043,11.244 Z"
     clip-rule="evenodd"
     id="path4399" /></g><g
   id="Layer_2-2"
   data-name="Layer 2"
   transform="matrix(0.4386854,0.62638066,-0.72692253,0.40784972,368.866,274.35925)"
   inkscape:transform-center-x="2.0824884"
   inkscape:transform-center-y="1.7453933"><g
     id="invisible_box"
     data-name="invisible box"><rect
       width="48"
       height="48"
       fill="none"
       id="rect4472"
       x="0"
       y="0" /><rect
       width="48"
       height="48"
       fill="none"
       id="rect4474"
       x="0"
       y="0" /></g><g
     id="icons_Q2"
     data-name="icons Q2"><g
       id="g4481"><path
         d="m 14.4,20.6 a 5.1,5.1 0 0 0 0.2,1.3 l 0.4,1 a 0.4,0.4 0 0 1 0.1,0.3 c 0,0.2 -0.1,0.3 -0.2,0.5 l -1,0.6 h -0.3 a 0.6,0.6 0 0 1 -0.5,-0.2 1.8,1.8 0 0 1 -0.5,-0.7 5.6,5.6 0 0 1 -0.5,-0.8 5.4,5.4 0 0 1 -4.3,2 4,4 0 0 1 -2.9,-1.1 3.8,3.8 0 0 1 -1.1,-2.8 3.9,3.9 0 0 1 1.4,-3 5.2,5.2 0 0 1 3.5,-1.1 h 1.6 L 12,16.9 V 16 A 3.5,3.5 0 0 0 11.3,13.7 3.8,3.8 0 0 0 8.9,13 L 7.3,13.2 5.7,13.7 5.2,13.9 H 5 C 4.8,13.9 4.7,13.7 4.7,13.4 V 12.7 A 0.7,0.7 0 0 1 4.8,12.2 L 5.2,11.9 A 7.5,7.5 0 0 1 7,11.3 9.1,9.1 0 0 1 9.3,11 a 5.5,5.5 0 0 1 3.9,1.2 4.9,4.9 0 0 1 1.2,3.6 z M 8.5,22.8 10,22.5 a 4.2,4.2 0 0 0 1.4,-0.9 3.1,3.1 0 0 0 0.5,-1 c 0,-0.3 0.1,-0.7 0.1,-1.2 V 18.8 L 10.7,18.5 H 9.3 a 3.4,3.4 0 0 0 -2.2,0.6 2.1,2.1 0 0 0 -0.7,1.7 2.1,2.1 0 0 0 0.5,1.5 2.1,2.1 0 0 0 1.6,0.5 z m 11.7,1.6 A 0.6,0.6 0 0 1 19.7,24.2 0.9,0.9 0 0 1 19.3,23.6 L 15.9,12.3 a 1.8,1.8 0 0 1 -0.1,-0.6 0.3,0.3 0 0 1 0.3,-0.3 h 2 a 1.6,1.6 0 0 1 0.3,0.6 l 2.5,9.7 2.3,-9.7 a 0.8,0.8 0 0 1 0.2,-0.6 h 2.4 l 0.3,0.6 2.3,9.8 2.5,-9.8 0.3,-0.6 h 1.9 c 0.3,0 0.4,0.1 0.4,0.3 V 12 c 0,0.1 -0.1,0.2 -0.1,0.3 l -3.6,11.4 a 0.6,0.6 0 0 1 -0.3,0.5 L 29,24.4 h -1.3 a 0.7,0.7 0 0 1 -0.8,-0.8 l -2.3,-9.4 -2.3,9.4 a 0.8,0.8 0 0 1 -0.2,0.6 l -0.6,0.2 z M 39,24.8 a 8.3,8.3 0 0 1 -2.2,-0.3 l -1.7,-0.6 a 1.1,1.1 0 0 1 -0.5,-0.4 c 0,-0.1 -0.1,-0.3 -0.1,-0.4 v -0.8 a 0.4,0.4 0 0 1 0.4,-0.4 h 0.2 l 0.4,0.2 1.6,0.5 1.8,0.2 a 4.1,4.1 0 0 0 2.1,-0.5 1.6,1.6 0 0 0 0.8,-1.4 1.5,1.5 0 0 0 -0.4,-1 3.5,3.5 0 0 0 -1.5,-0.8 l -2.1,-0.7 a 4.6,4.6 0 0 1 -2.4,-1.4 3.6,3.6 0 0 1 -0.7,-2.2 2.9,2.9 0 0 1 0.4,-1.6 2.9,2.9 0 0 1 1,-1.2 l 1.6,-0.8 1.8,-0.2 h 1.9 l 0.9,0.3 0.6,0.2 c 0.2,0.1 0.3,0.3 0.4,0.4 a 0.7,0.7 0 0 1 0.1,0.5 v 0.7 c 0,0.3 -0.1,0.4 -0.3,0.4 a 0.6,0.6 0 0 1 -0.5,-0.2 8.8,8.8 0 0 0 -2.9,-0.5 3.6,3.6 0 0 0 -1.9,0.4 1.4,1.4 0 0 0 -0.7,1.3 1.4,1.4 0 0 0 0.5,1 2.9,2.9 0 0 0 1.6,0.8 l 2,0.7 a 4,4 0 0 1 2.3,1.4 3.1,3.1 0 0 1 0.7,2 4.3,4.3 0 0 1 -0.4,1.7 3.5,3.5 0 0 1 -1.1,1.3 3,3 0 0 1 -1.6,0.8 4.9,4.9 0 0 1 -2.1,0.6 z"
         id="path4477" /><path
         d="M 41.8,31.9 C 37,35.4 30,37.3 24,37.3 A 32.1,32.1 0 0 1 2.2,29 c -0.5,-0.4 0,-1 0.5,-0.6 a 44,44 0 0 0 21.8,5.8 45.2,45.2 0 0 0 16.6,-3.4 c 0.8,-0.4 1.5,0.5 0.7,1.1 z m 2,-2.3 C 43.2,28.8 39.7,29.2 38.2,29.4 36.7,29.6 37.6,29 38,28.7 c 2.8,-1.9 7.3,-1.3 7.8,-0.7 0.5,0.6 -0.1,5.2 -2.7,7.4 -0.4,0.3 -0.8,0.1 -0.6,-0.3 0.2,-0.4 1.9,-4.7 1.3,-5.5 z"
         id="path4479" /></g></g></g><g
   style="fill:none"
   id="g4557"
   transform="matrix(1.0869157,-1.6975929,1.7432704,1.1161616,78.769271,448.71919)"
   inkscape:transform-center-x="1.5963093"
   inkscape:transform-center-y="1.166455"><path
     d="M 0.5,5.5 V 5 H 0 v 0.5 z m 2,-2 V 3 H 2 v 0.5 z m 4,-2 V 1 H 6 v 0.5 z m 2,0 H 9 V 1 H 8.5 Z m 4,6 H 12 V 8 h 0.5 z M 1,7.5 v -2 H 0 v 2 z m 2,0 v -4 H 2 v 4 z M 2.5,4 h 6 V 3 h -6 z M 8,3.5 v 4 h 1 v -4 z m -3,4 v -4 H 4 v 4 z m 2,0 v -6 H 6 v 6 z M 6.5,2 h 2 V 1 h -2 z M 8,1.5 v 2 h 1 v -2 z M 13.7361,10 H 15 V 9 H 13.7361 Z M 10,5 v 0.5 h 1 V 5 Z m 2,1.5 v 1 h 1 v -1 z M 12.5,8 h 1 V 7 h -1 z M 14,8.5 v 1 h 1 v -1 z M 13.5,8 C 13.7761,8 14,8.22386 14,8.5 h 1 C 15,7.67157 14.3284,7 13.5,7 Z m -2,-2 C 11.7761,6 12,6.22386 12,6.5 h 1 C 13,5.67157 12.3284,5 11.5,5 Z M 3,10 H 4 V 9 H 3 Z M 8.5,7 h -8 v 1 h 8 z M 0,7.5 v 1 h 1 v -1 z M 5.5,14 H 6.02786 V 13 H 5.5 Z m 0.52786,0 c 2.48479,0 4.78854,-1.1904 6.23064,-3.1504 L 11.4531,10.257 C 10.1974,11.9636 8.19126,13 6.02786,13 Z M 0,8.5 C 0,11.5376 2.46243,14 5.5,14 V 13 C 3.01472,13 1,10.9853 1,8.5 Z M 0.5,6 h 11 V 5 H 0.5 Z M 10,5.5 C 10,6.32843 9.32843,7 8.5,7 V 8 C 9.88071,8 11,6.88071 11,5.5 Z M 13.7361,9 c -0.9599,0 -1.7688,0.55817 -2.283,1.257 l 0.8054,0.5926 C 12.6423,10.3281 13.1808,10 13.7361,10 Z"
     fill="#000000"
     id="path4546" /></g><g
   style="fill:none"
   id="g4615"
   transform="matrix(2.028279,-0.09733262,0.09380863,1.9141686,235.20375,213.46224)"><path
     fill="#000000"
     fill-rule="evenodd"
     d="M 5.374,15 C 5.039,15 4.714,14.847 4.5,14.569 L 1.246,10.397 A 1.15,1.15 0 0 1 1.032,9.419 L 2.197,4.212 C 2.271,3.867 2.495,3.589 2.802,3.436 L 7.517,1.116 C 7.667,1.038 7.834,1 8.002,1 8.17,1 8.337,1.038 8.487,1.115 L 13.2,3.426 c 0.308,0.153 0.532,0.432 0.606,0.777 l 1.165,5.207 c 0.074,0.345 0,0.7 -0.214,0.978 L 11.5,14.566 C 11.286,14.834 10.96,15 10.625,15 h -5.25 z m 7.718,-5.835 0.031,0.008 a 0.308,0.308 0 0 1 0.26,0.371 0.306,0.306 0 0 1 -0.396,0.223 H 12.983 L 12.98,9.766 12.977,9.765 12.947,9.758 12.897,9.748 A 2.548,2.548 0 0 1 12.623,9.642 2.87,2.87 0 0 0 12.09,9.486 0.242,0.242 0 0 0 11.919,9.549 4.76,4.76 0 0 0 11.788,9.526 3.972,3.972 0 0 1 10.024,11.738 c 0.015,0.042 0.032,0.083 0.051,0.123 a 0.239,0.239 0 0 0 -0.023,0.18 c 0.074,0.17 0.165,0.332 0.271,0.484 0.06,0.078 0.114,0.16 0.164,0.244 l 0.028,0.057 0.012,0.025 a 0.306,0.306 0 0 1 -0.381,0.44 0.307,0.307 0 0 1 -0.172,-0.18 2.608,2.608 0 0 0 -0.01,-0.02 L 9.936,13.033 A 2.545,2.545 0 0 1 9.847,12.753 2.835,2.835 0 0 0 9.637,12.241 0.242,0.242 0 0 0 9.481,12.146 5.926,5.926 0 0 1 9.451,12.093 L 9.416,12.029 A 3.97,3.97 0 0 1 6.592,12.022 l -0.069,0.125 a 0.249,0.249 0 0 0 -0.132,0.064 c -0.104,0.17 -0.184,0.355 -0.237,0.548 a 2.525,2.525 0 0 1 -0.088,0.28 l -0.025,0.05 -0.013,0.027 v 0.001 A 0.307,0.307 0 1 1 5.475,12.856 l 0.014,-0.03 0.026,-0.052 c 0.05,-0.085 0.104,-0.166 0.164,-0.244 0.108,-0.156 0.2,-0.322 0.277,-0.496 A 0.302,0.302 0 0 0 5.928,11.861 L 5.984,11.728 A 3.972,3.972 0 0 1 4.22,9.532 L 4.086,9.555 A 0.34,0.34 0 0 0 3.91,9.493 2.872,2.872 0 0 0 3.377,9.649 C 3.287,9.689 3.196,9.724 3.103,9.754 L 3.053,9.765 3.023,9.772 H 3.02 L 3.018,9.774 H 3.013 A 0.308,0.308 0 0 1 2.616,9.425 0.306,0.306 0 0 1 2.877,9.18 L 2.881,9.179 H 2.884 L 2.89,9.177 C 2.914,9.171 2.944,9.163 2.966,9.159 3.063,9.146 3.161,9.138 3.259,9.136 3.445,9.123 3.629,9.093 3.808,9.046 A 0.422,0.422 0 0 0 3.939,8.913 L 4.067,8.876 A 3.938,3.938 0 0 1 4.691,6.124 L 4.594,6.037 A 0.338,0.338 0 0 0 4.532,5.861 2.854,2.854 0 0 0 4.077,5.542 2.557,2.557 0 0 1 3.823,5.394 1.129,1.129 0 0 1 3.76,5.344 L 3.756,5.34 A 0.323,0.323 0 0 1 3.68,4.89 0.295,0.295 0 0 1 3.924,4.783 0.365,0.365 0 0 1 4.137,4.863 L 4.159,4.88 C 4.175,4.893 4.193,4.906 4.205,4.917 4.276,4.984 4.344,5.056 4.407,5.13 4.532,5.267 4.67,5.392 4.819,5.502 4.875,5.532 4.94,5.538 5.001,5.52 l 0.11,0.078 A 3.938,3.938 0 0 1 7.663,4.374 L 7.67,4.245 A 0.332,0.332 0 0 0 7.77,4.088 2.844,2.844 0 0 0 7.736,3.534 2.555,2.555 0 0 1 7.694,3.244 V 3.191 3.166 3.162 3.158 A 0.306,0.306 0 0 1 8,2.82 0.308,0.308 0 0 1 8.306,3.157 V 3.244 A 2.53,2.53 0 0 1 8.265,3.534 2.85,2.85 0 0 0 8.23,4.087 0.242,0.242 0 0 0 8.33,4.24 v 0.007 l 0.007,0.13 c 0.967,0.087 1.87,0.522 2.54,1.223 l 0.116,-0.083 a 0.34,0.34 0 0 0 0.186,-0.02 c 0.149,-0.11 0.287,-0.235 0.412,-0.373 a 2.53,2.53 0 0 1 0.202,-0.213 l 0.051,-0.04 0.017,-0.014 a 0.308,0.308 0 0 1 0.472,0.388 0.307,0.307 0 0 1 -0.09,0.09 c -0.008,0.005 -0.017,0.012 -0.025,0.02 l -0.043,0.033 a 2.549,2.549 0 0 1 -0.254,0.148 2.865,2.865 0 0 0 -0.455,0.32 0.24,0.24 0 0 0 -0.058,0.172 4.458,4.458 0 0 1 -0.05,0.044 L 11.3,6.125 c 0.542,0.806 0.769,1.783 0.637,2.745 l 0.123,0.036 c 0.031,0.056 0.077,0.101 0.132,0.132 0.18,0.048 0.364,0.078 0.55,0.09 0.097,0.003 0.195,0.01 0.292,0.024 z M 10.217,6.065 8.909,6.99 8.905,6.988 A 0.27,0.27 0 0 1 8.475,6.783 V 6.782 L 8.384,5.184 a 3.183,3.183 0 0 1 1.833,0.882 z M 7.754,7.818 H 8.246 L 8.552,8.199 8.442,8.675 8,8.886 7.557,8.673 7.447,8.198 7.754,7.817 Z M 7.29,5.24 C 7.397,5.216 7.506,5.197 7.616,5.184 l -0.09,1.6 -0.008,0.004 A 0.268,0.268 0 0 1 7.225,7.044 0.27,0.27 0 0 1 7.09,6.994 L 7.088,6.995 5.772,6.065 C 6.191,5.655 6.717,5.369 7.29,5.24 Z M 5.296,6.663 6.497,7.734 6.496,7.741 A 0.269,0.269 0 0 1 6.39,8.203 L 6.389,8.208 4.849,8.651 A 3.134,3.134 0 0 1 5.296,6.663 Z M 6.904,9.509 6.292,10.983 A 3.16,3.16 0 0 1 5.022,9.397 L 6.6,9.13 6.603,9.133 A 0.265,0.265 0 0 1 6.783,9.162 0.27,0.27 0 0 1 6.9,9.503 Z m 1.806,1.896 c -0.572,0.13 -1.17,0.1 -1.726,-0.088 l 0.777,-1.4 H 7.762 A 0.27,0.27 0 0 1 8.237,9.916 h 0.006 l 0.779,1.402 A 3.286,3.286 0 0 1 8.71,11.405 Z M 9.714,10.989 9.096,9.5 9.097,9.497 A 0.269,0.269 0 0 1 9.393,9.127 L 9.396,9.123 10.989,9.392 A 3.147,3.147 0 0 1 9.714,10.989 Z M 11.156,8.646 9.61,8.201 9.608,8.195 A 0.27,0.27 0 0 1 9.423,7.852 0.27,0.27 0 0 1 9.503,7.732 L 9.5,7.73 10.695,6.663 c 0.366,0.594 0.527,1.29 0.46,1.983 z"
     clip-rule="evenodd"
     id="path4604" /></g><g
   style="fill:#000000"
   id="g4677"
   transform="matrix(0.52119684,0.98605801,-1.082449,0.57214583,289.15882,13.362812)"><path
     d="m 14.923,8.08 c -0.025,0.072 -0.141,0.061 -0.207,0.082 -0.059,0.031 -0.107,0.085 -0.175,0.085 -0.062,0 -0.162,-0.025 -0.17,-0.085 -0.012,-0.082 0.11,-0.166 0.187,-0.166 0.05,-0.024 0.108,-0.037 0.169,-0.037 0.056,0 0.109,0.011 0.157,0.032 L 14.881,7.99 c 0.022,0.009 0.038,0.03 0.038,0.055 0,0.003 0,0.005 -0.001,0.008 v 0 0.025 h 0.004 z m 0.688,0 V 8.053 c -0.008,-0.025 0.016,-0.052 0.036,-0.062 0.046,-0.02 0.1,-0.032 0.157,-0.032 0.061,0 0.119,0.014 0.17,0.038 L 15.972,7.996 c 0.079,0 0.2,0.084 0.187,0.169 -0.007,0.061 -0.106,0.082 -0.169,0.082 -0.069,0 -0.115,-0.054 -0.176,-0.085 C 15.749,8.139 15.632,8.152 15.61,8.081 Z m 1.352,1.978 c -0.532,0.337 -1.161,0.574 -1.835,0.666 l -0.024,0.003 c -0.606,-0.035 -1.157,-0.248 -1.607,-0.588 l 0.007,0.005 C 13.312,9.977 13.154,9.809 13.038,9.725 12.833,9.558 12.858,9.309 12.946,9.309 c 0.136,0.02 0.161,0.167 0.249,0.25 0.12,0.082 0.269,0.25 0.45,0.416 0.397,0.328 0.899,0.541 1.45,0.583 l 0.009,10e-4 c 0.654,-0.057 1.249,-0.267 1.763,-0.592 l -0.016,0.01 c 0.244,-0.169 0.556,-0.417 0.81,-0.584 0.195,-0.17 0.186,-0.334 0.349,-0.334 0.16,0.02 0.043,0.167 -0.184,0.415 -0.246,0.188 -0.527,0.381 -0.818,0.56 l -0.044,0.025 z M 8.017,21.397 h 0.012 c 0.069,0 0.137,0.007 0.203,0.019 L 8.225,21.415 c 0.544,0.14 0.992,0.478 1.273,0.931 l 0.005,0.009 1.137,2.079 0.004,0.004 c 0.457,0.773 0.948,1.442 1.497,2.059 L 12.13,26.484 c 0.49,0.52 0.82,1.196 0.909,1.946 l 0.002,0.016 v 0.008 c -0.012,0.817 -0.613,1.491 -1.396,1.616 l -0.009,0.001 c -0.2,0.031 -0.432,0.048 -0.667,0.048 -0.857,0 -1.659,-0.233 -2.347,-0.64 l 0.021,0.012 C 7.59,29.05 6.368,28.777 5.088,28.739 H 5.073 C 4.701,28.714 4.377,28.524 4.172,28.243 L 4.17,28.24 C 4.116,28.066 4.085,27.866 4.085,27.658 c 0,-0.35 0.088,-0.679 0.244,-0.966 l -0.005,0.011 v -0.005 l 0.003,-0.004 c 0.041,-0.188 0.065,-0.405 0.065,-0.627 0,-0.274 -0.036,-0.539 -0.104,-0.791 l 0.005,0.021 c -0.041,-0.15 -0.065,-0.323 -0.065,-0.502 0,-0.242 0.043,-0.473 0.123,-0.687 l -0.004,0.014 c 0.2,-0.417 0.495,-0.5 0.862,-0.666 0.438,-0.133 0.819,-0.334 1.151,-0.593 l -0.008,0.006 h 0.002 v -0.003 c 0.32,-0.335 0.556,-0.751 0.835,-1.047 0.195,-0.249 0.492,-0.41 0.827,-0.42 h 0.002 z m 13.514,-0.061 c -10e-4,0.017 -10e-4,0.038 -10e-4,0.059 0,0.743 0.449,1.381 1.091,1.658 l 0.012,0.005 c 0.048,0.003 0.104,0.005 0.16,0.005 0.831,0 1.575,-0.371 2.075,-0.957 l 0.003,-0.004 0.264,-0.012 c 0.053,-0.008 0.114,-0.012 0.176,-0.012 0.341,0 0.652,0.132 0.883,0.348 l -10e-4,-10e-4 0.004,0.004 c 0.249,0.301 0.422,0.673 0.487,1.082 l 0.002,0.013 c 0.055,0.505 0.238,0.96 0.517,1.34 l -0.005,-0.008 c 0.416,0.356 0.705,0.85 0.793,1.411 l 0.002,0.013 0.004,-0.009 v 0.022 l -0.004,-0.015 c -0.019,0.327 -0.231,0.495 -0.622,0.744 -1.184,0.497 -2.201,1.158 -3.077,1.968 l 0.007,-0.006 c -0.608,0.792 -1.501,1.339 -2.523,1.486 l -0.021,0.002 c -0.074,0.01 -0.16,0.016 -0.247,0.016 -0.768,0 -1.428,-0.464 -1.716,-1.126 L 19.789,29.35 19.783,29.346 C 19.69,29.06 19.637,28.731 19.637,28.39 c 0,-0.416 0.079,-0.813 0.224,-1.178 l -0.008,0.022 c 0.234,-0.668 0.435,-1.466 0.568,-2.288 l 0.011,-0.083 c 0.016,-0.812 0.104,-1.593 0.258,-2.35 l -0.014,0.083 c 0.085,-0.518 0.381,-0.954 0.794,-1.225 l 0.007,-0.004 0.056,-0.027 z M 18.8,10.142 c 0.6,2.147 1.339,4.002 2.247,5.757 l -0.079,-0.167 c 0.613,1.09 1.09,2.355 1.363,3.695 l 0.014,0.084 c 0.009,0 0.02,0 0.031,0 0.217,0 0.427,0.029 0.627,0.084 l -0.017,-0.004 c 0.11,-0.395 0.173,-0.848 0.173,-1.316 0,-1.426 -0.587,-2.716 -1.533,-3.639 l -0.001,-10e-4 c -0.275,-0.25 -0.29,-0.419 -0.154,-0.419 0.971,0.91 1.689,2.078 2.045,3.394 l 0.012,0.051 c 0.089,0.329 0.14,0.707 0.14,1.097 0,0.351 -0.041,0.693 -0.119,1.02 l 0.006,-0.03 c 0.074,0.038 0.16,0.067 0.251,0.083 l 0.006,0.001 c 1.29,0.667 1.766,1.172 1.537,1.921 v -0.054 c -0.075,-0.004 -0.15,0 -0.225,0 h -0.02 c 0.189,-0.584 -0.227,-1.031 -1.331,-1.53 -1.143,-0.5 -2.057,-0.42 -2.212,0.581 -0.011,0.049 -0.019,0.106 -0.022,0.165 v 0.003 c -0.073,0.03 -0.16,0.058 -0.25,0.078 l -0.011,0.002 c -0.508,0.336 -0.87,0.859 -0.989,1.469 l -0.002,0.014 c -0.148,0.695 -0.241,1.5 -0.256,2.323 v 0.012 0.004 c -0.091,0.637 -0.23,1.207 -0.418,1.753 l 0.02,-0.066 c -0.983,0.804 -2.251,1.29 -3.634,1.29 -1.13,0 -2.184,-0.325 -3.073,-0.887 l 0.024,0.014 c -0.146,-0.253 -0.313,-0.472 -0.503,-0.667 l 0.001,10e-4 c -0.097,-0.16 -0.211,-0.297 -0.342,-0.415 l -0.002,-0.001 c 0.207,0 0.407,-0.031 0.596,-0.088 l -0.015,0.004 c 0.18,-0.085 0.318,-0.232 0.391,-0.412 l 0.002,-0.005 c 0.018,-0.093 0.029,-0.199 0.029,-0.308 0,-0.445 -0.175,-0.848 -0.461,-1.146 l 10e-4,0.001 c -0.619,-0.761 -1.359,-1.395 -2.196,-1.88 l -0.038,-0.02 C 9.742,21.6 9.234,20.993 8.983,20.266 L 8.976,20.244 C 8.883,19.926 8.829,19.56 8.829,19.182 c 0,-0.353 0.047,-0.695 0.134,-1.021 l -0.006,0.027 c 0.377,-1.314 0.921,-2.461 1.62,-3.496 l -0.028,0.043 c 0.134,-0.081 0.046,0.169 -0.51,1.217 -0.474,0.713 -0.757,1.59 -0.757,2.533 0,0.84 0.224,1.627 0.616,2.306 L 9.886,20.769 C 9.938,19.46 10.231,18.232 10.72,17.11 l -0.025,0.065 c 1.055,-1.902 1.854,-4.111 2.275,-6.452 l 0.02,-0.131 c 0.06,0.045 0.271,0.169 0.361,0.252 0.272,0.166 0.475,0.416 0.737,0.581 0.267,0.26 0.633,0.42 1.035,0.42 0.021,0 0.042,0 0.063,-0.001 h -0.003 c 0.049,0.004 0.094,0.008 0.137,0.008 0.459,-0.009 0.887,-0.132 1.259,-0.342 l -0.013,0.007 c 0.362,-0.167 0.65,-0.417 0.925,-0.5 h 0.006 c 0.535,-0.145 0.983,-0.454 1.3,-0.869 l 0.004,-0.006 z M 15.301,7.465 c 0.003,0 0.006,0 0.009,0 0.569,0 1.094,0.187 1.517,0.503 L 16.82,7.963 c 0.378,0.234 0.814,0.433 1.275,0.574 l 0.04,0.01 h 0.004 c 0.246,0.11 0.449,0.281 0.594,0.494 l 0.003,0.005 V 8.882 c 0.046,0.092 0.074,0.201 0.074,0.316 0,0.098 -0.02,0.191 -0.055,0.276 l 0.002,-0.005 c -0.288,0.507 -0.755,0.884 -1.313,1.048 l -0.016,0.004 v 0.002 c -0.335,0.169 -0.626,0.416 -0.968,0.581 -0.35,0.21 -0.771,0.334 -1.222,0.334 -0.015,0 -0.03,0 -0.045,0 h 0.002 c -0.022,10e-4 -0.048,0.002 -0.074,0.002 -0.174,0 -0.342,-0.031 -0.496,-0.089 l 0.01,0.003 c -0.159,-0.087 -0.29,-0.169 -0.417,-0.257 l 0.014,0.01 c -0.227,-0.199 -0.477,-0.39 -0.739,-0.565 L 13.467,10.526 V 10.52 H 13.461 C 13.086,10.321 12.791,10.016 12.609,9.644 L 12.604,9.632 C 12.577,9.565 12.562,9.487 12.562,9.406 c 0,-0.218 0.112,-0.41 0.281,-0.522 l 0.002,-0.001 c 0.28,-0.169 0.475,-0.339 0.604,-0.42 0.13,-0.092 0.179,-0.127 0.22,-0.164 h 0.002 V 8.295 C 13.939,7.956 14.294,7.696 14.703,7.549 L 14.719,7.544 C 14.893,7.494 15.093,7.465 15.3,7.463 h 10e-4 z M 13.589,5.333 h 0.045 c 0.188,0.004 0.361,0.067 0.501,0.17 L 14.133,5.501 c 0.179,0.159 0.325,0.352 0.425,0.57 l 0.004,0.011 c 0.113,0.245 0.183,0.53 0.191,0.83 V 6.915 6.92 c 0.004,0.046 0.006,0.099 0.006,0.152 0,0.063 -0.003,0.126 -0.009,0.188 l 10e-4,-0.008 v 0.1 c -0.037,0.009 -0.07,0.022 -0.104,0.03 -0.191,0.079 -0.352,0.163 -0.505,0.258 l 0.014,-0.008 c 0.008,-0.055 0.012,-0.118 0.012,-0.182 0,-0.053 -0.003,-0.106 -0.009,-0.158 L 14.16,7.298 V 7.279 C 14.142,7.125 14.106,6.984 14.053,6.851 l 0.004,0.011 C 14.016,6.73 13.944,6.618 13.85,6.529 v 0 c -0.055,-0.05 -0.128,-0.081 -0.209,-0.081 -0.007,0 -0.014,0 -0.021,10e-4 h 0.001 -0.026 C 13.492,6.46 13.406,6.524 13.363,6.612 l -10e-4,0.002 c -0.077,0.093 -0.13,0.208 -0.15,0.334 v 0.004 c -0.023,0.086 -0.035,0.185 -0.035,0.287 0,0.044 0.002,0.088 0.007,0.131 V 7.365 7.384 C 13.2,7.538 13.236,7.68 13.288,7.812 L 13.284,7.801 c 0.042,0.132 0.113,0.245 0.207,0.335 v 0 c 0.012,0.012 0.026,0.022 0.042,0.03 h 0.001 c -0.083,0.053 -0.155,0.109 -0.221,0.171 l 10e-4,-10e-4 c -0.045,0.04 -0.1,0.07 -0.161,0.084 L 13.15,8.421 C 13.027,8.274 12.913,8.109 12.815,7.935 L 12.807,7.919 C 12.694,7.674 12.624,7.39 12.613,7.089 V 7.085 C 12.609,7.037 12.607,6.981 12.607,6.924 c 0,-0.241 0.039,-0.473 0.11,-0.69 L 12.713,6.25 c 0.074,-0.258 0.195,-0.481 0.356,-0.671 l -0.002,0.003 c 0.127,-0.15 0.313,-0.245 0.522,-0.25 h 10e-4 z m 3.702,-0.074 h 0.016 c 0.001,0 0.002,0 0.004,0 0.275,0 0.527,0.093 0.729,0.249 L 18.037,5.506 c 0.229,0.177 0.413,0.4 0.542,0.655 l 0.005,0.011 c 0.121,0.266 0.196,0.575 0.207,0.901 v 0.004 c 0,-0.025 0.007,-0.05 0.007,-0.075 V 7.133 L 18.793,7.107 18.788,7.077 c -0.003,0.32 -0.071,0.622 -0.193,0.897 L 18.601,7.96 c -0.062,0.163 -0.152,0.303 -0.266,0.419 v 0 C 18.305,8.361 18.268,8.344 18.231,8.329 L 18.225,8.327 C 18.09,8.285 17.972,8.228 17.865,8.158 L 17.87,8.161 C 17.793,8.129 17.701,8.101 17.606,8.08 L 17.595,8.078 C 17.676,8.002 17.751,7.921 17.82,7.835 L 17.824,7.83 c 0.063,-0.148 0.102,-0.319 0.11,-0.499 V 7.328 7.303 c 0,-0.008 0,-0.016 0,-0.025 0,-0.17 -0.028,-0.333 -0.08,-0.485 l 0.003,0.011 C 17.794,6.645 17.717,6.508 17.625,6.383 l 0.004,0.005 C 17.542,6.3 17.427,6.24 17.298,6.223 h -0.003 -0.02 c -10e-4,0 -0.003,0 -0.004,0 -0.132,0 -0.25,0.065 -0.322,0.164 l -0.001,0.001 c -0.116,0.113 -0.204,0.253 -0.254,0.41 L 16.692,6.805 C 16.629,6.952 16.588,7.123 16.58,7.301 v 0.003 0.024 c 0.002,0.12 0.011,0.236 0.027,0.349 L 16.605,7.662 C 16.364,7.578 16.058,7.493 15.846,7.41 15.834,7.337 15.826,7.251 15.824,7.163 V 7.16 7.135 c -10e-4,-0.02 -10e-4,-0.043 -10e-4,-0.066 0,-0.324 0.069,-0.631 0.194,-0.908 l -0.006,0.014 c 0.106,-0.279 0.293,-0.508 0.532,-0.663 l 0.005,-0.003 c 0.204,-0.156 0.462,-0.25 0.742,-0.25 v 0 z M 16.63,1.004 c -0.194,0 -0.394,0.01 -0.6,0.026 -5.281,0.416 -3.88,6.007 -3.961,7.87 -0.05,1.426 -0.534,2.729 -1.325,3.792 l 0.013,-0.018 C 9.35,14.276 8.202,16.148 7.406,18.197 l -0.043,0.127 c -0.258,0.685 -0.408,1.476 -0.408,2.302 0,0.285 0.018,0.566 0.052,0.841 L 7.004,21.434 C 6.948,21.48 6.901,21.536 6.868,21.6 l -0.001,0.003 c -0.325,0.335 -0.562,0.75 -0.829,1.048 -0.283,0.217 -0.615,0.388 -0.975,0.494 L 5.042,23.15 C 4.578,23.289 4.2,23.592 3.967,23.991 L 3.962,24 c -0.104,0.212 -0.165,0.461 -0.165,0.725 0,0.01 0,0.019 0,0.029 v -0.001 c 0.002,0.238 0.026,0.469 0.073,0.693 L 3.866,25.423 c 0.056,0.219 0.088,0.471 0.088,0.73 0,0.17 -0.014,0.337 -0.041,0.5 l 0.002,-0.018 c -0.167,0.313 -0.264,0.685 -0.264,1.08 0,0.278 0.048,0.544 0.137,0.791 L 3.783,28.49 c 0.273,0.388 0.686,0.662 1.164,0.749 l 0.011,0.002 c 1.274,0.107 2.451,0.373 3.561,0.78 l -0.094,-0.03 c 0.698,0.415 1.539,0.66 2.436,0.66 0.294,0 0.582,-0.026 0.862,-0.077 l -0.029,0.004 c 0.667,-0.151 1.211,-0.586 1.504,-1.169 l 0.006,-0.013 c 0.734,-0.004 1.537,-0.336 2.824,-0.417 0.873,-0.072 1.967,0.334 3.22,0.25 0.037,0.159 0.086,0.298 0.148,0.429 l -0.006,-0.013 0.004,0.004 c 0.384,0.804 1.19,1.35 2.124,1.35 0.081,0 0.161,-0.004 0.24,-0.012 l -0.01,0.001 c 1.151,-0.17 2.139,-0.768 2.813,-1.623 l 0.007,-0.009 c 0.843,-0.768 1.827,-1.401 2.905,-1.853 l 0.067,-0.025 c 0.432,-0.191 0.742,-0.585 0.81,-1.059 l 10e-4,-0.007 c -0.059,-0.694 -0.392,-1.299 -0.888,-1.716 l -0.004,-0.003 v -0.121 l -0.004,-0.004 c -0.214,-0.33 -0.364,-0.722 -0.421,-1.142 l -0.002,-0.015 c -0.053,-0.513 -0.278,-0.966 -0.615,-1.307 v 0 H 26.413 C 26.339,22.037 26.259,22.02 26.178,21.935 26.112,21.888 26.03,21.859 25.941,21.855 H 25.94 c 0.195,-0.602 0.308,-1.294 0.308,-2.013 0,-0.94 -0.193,-1.835 -0.541,-2.647 l 0.017,0.044 C 25.02,15.567 24.105,14.128 22.992,12.87 l 0.014,0.017 C 21.901,11.805 21.178,10.336 21.058,8.7 L 21.057,8.679 C 21.09,5.99 21.352,1.015 16.628,1.008 Z"
     id="path4666" /></g><g
   style="fill:#000000"
   id="g4733"
   transform="matrix(0.10171661,0.17625491,-0.12106998,0.06986942,467.28887,348.45803)"><path
     d="M 169.534,1.799 C 167.867,0.374 165.66,-0.25 163.492,0.092 L 7.661,24.677 C 4.015,25.252 1.33,28.394 1.33,32.085 v 109.319 c 0,3.69 2.685,6.833 6.331,7.408 l 155.832,24.586 c 0.39,0.062 0.78,0.092 1.169,0.092 1.773,0 3.505,-0.63 4.873,-1.799 1.667,-1.425 2.627,-3.508 2.627,-5.701 V 7.5 C 172.161,5.306 171.201,3.223 169.534,1.799 Z M 157.161,79.305 H 84.126 V 27.799 L 157.161,16.277 Z M 69.126,30.165 V 79.306 H 16.329 V 38.495 Z m -52.797,64.14 h 52.797 v 49.02 l -52.797,-8.33 z m 67.797,51.386 V 94.305 h 73.035 v 62.908 z"
     id="path4723" /></g><g
   style="fill:none"
   id="g4791"
   transform="matrix(1.6464992,0,0,1.6647896,256.09828,339.70033)"><path
     fill-rule="evenodd"
     clip-rule="evenodd"
     d="m 13.4142,3.82843 c -0.781,-0.78105 -2.0474,-0.78105 -2.8284,0 L 9.91421,4.5 11.482,6.06774 C 11.6472,6.02356 11.8208,6 12,6 c 1.1046,0 2,0.89543 2,2 0,0.17916 -0.0236,0.35282 -0.0677,0.51804 L 15.982,10.5677 C 16.1472,10.5236 16.3208,10.5 16.5,10.5 c 1.1046,0 2,0.8954 2,2 0,1.1046 -0.8954,2 -2,2 -1.1046,0 -2,-0.8954 -2,-2 0,-0.1792 0.0236,-0.3528 0.0677,-0.518 L 13,10.4142 v 4.8534 c 0.5978,0.3458 1,0.9921 1,1.7324 0,1.1046 -0.8954,2 -2,2 -1.1046,0 -2,-0.8954 -2,-2 0,-0.7403 0.4022,-1.3866 1,-1.7324 V 9.73244 C 10.4022,9.38663 10,8.74028 10,8 10,7.82084 10.0236,7.64718 10.0677,7.48196 L 8.5,5.91421 3.82843,10.5858 c -0.78105,0.781 -0.78105,2.0474 0,2.8284 l 6.75737,6.7574 c 0.781,0.781 2.0474,0.781 2.8284,0 l 6.7574,-6.7574 c 0.781,-0.781 0.781,-2.0474 0,-2.8284 z M 9.17157,2.41421 c 1.56213,-1.562095 4.09473,-1.562091 5.65683,10e-6 l 6.7574,6.75735 c 1.5621,1.56213 1.5621,4.09473 0,5.65683 l -6.7574,6.7574 c -1.5621,1.5621 -4.0947,1.5621 -5.65683,0 L 2.41421,14.8284 C 0.852115,13.2663 0.852119,10.7337 2.41422,9.17157 Z"
     fill="#000000"
     id="path4780" /></g><g
   id="Layer_2-21"
   data-name="Layer 2"
   transform="matrix(0.75395478,0,0,0.90277824,137.84202,407.67024)"><g
     id="invisible_box-6"
     data-name="invisible box"><rect
       width="48"
       height="48"
       fill="none"
       id="rect4847"
       x="0"
       y="0" /></g><g
     id="icons_Q2-2"
     data-name="icons Q2"><path
       d="M 46,24 A 12,12 0 0 0 34,12 C 28.8,12 24.5,16.1 22.1,23.4 20.3,28.9 17.3,32 14,32 a 8,8 0 0 1 0,-16 h 1.2 l -1.6,1.6 a 1.9,1.9 0 0 0 0.2,3 2.1,2.1 0 0 0 2.7,-0.2 l 4.9,-5 a 1.9,1.9 0 0 0 0,-2.8 l -4.9,-5 a 2.1,2.1 0 0 0 -2.7,-0.2 1.9,1.9 0 0 0 -0.2,3 L 15.2,12 H 14 a 12,12 0 0 0 0,24 C 19.2,36 23.5,31.9 25.9,24.6 27.7,19.1 30.7,16 34,16 a 8,8 0 0 1 0,16 h -1.2 l 1.6,-1.6 a 1.9,1.9 0 0 0 -0.2,-3 2.1,2.1 0 0 0 -2.7,0.2 l -4.9,5 a 1.9,1.9 0 0 0 0,2.8 l 4.9,5 a 2.1,2.1 0 0 0 2.7,0.2 1.9,1.9 0 0 0 0.2,-3 L 32.8,36 H 34 A 12,12 0 0 0 46,24 Z"
       id="path4850" /></g></g></svg>
